<?xml version="1.0" encoding="utf-8"?>
<!-- Generator: Adobe Illustrator 23.0.2, SVG Export Plug-In . SVG Version: 6.00 Build 0)  -->
<svg version="1.1" id="Capa_1" xmlns="http://www.w3.org/2000/svg" xmlns:xlink="http://www.w3.org/1999/xlink" x="0px" y="0px"
	 viewBox="0 0 230 70" style="enable-background:new 0 0 230 70;" xml:space="preserve"  width="230px" height="70px">
<style type="text/css">
	.st0{fill:#FFFFFF;}
</style>
<g>
	<g>
		<path class="st0" d="M55.51,39.7c0-7.8,6.07-13.52,13.59-13.52s13.59,5.72,13.59,13.52c0,7.76-6.03,13.52-13.59,13.52
			C61.54,53.22,55.51,47.46,55.51,39.7z M58.48,39.7c0,5.99,4.74,10.77,10.62,10.77S79.72,45.7,79.72,39.7S74.98,28.93,69.1,28.93
			S58.48,33.71,58.48,39.7z"/>
		<path class="st0" d="M86.02,52.75V25.52l20.37,21.35V26.62h2.9v27.31L88.92,32.57v20.18H86.02z"/>
		<path class="st0" d="M132.41,51.92c-2.31,1.18-4.19,1.41-5.76,1.41c-4.82,0-8.07-1.65-10.26-3.8c-2.35-2.27-4.07-5.72-4.07-9.91
			c0-4.11,1.72-7.56,4.07-9.83c2.31-2.23,5.68-3.76,9.75-3.76c1.72,0,3.72,0.35,6.27,1.45v6.97c-1.33-1.41-3.33-2.78-6.11-2.78
			c-2.19,0-3.96,0.71-5.33,2.04c-1.45,1.41-2.47,3.53-2.47,6.03c0,2.7,1.1,4.62,2.27,5.76c0.55,0.55,2.43,2.19,5.64,2.19
			c1.57,0,3.68-0.43,5.99-2.7V51.92z"/>
		<path class="st0" d="M141.26,26.62v21.04h8.11v5.09h-14.14V26.62H141.26z"/>
		<path class="st0" d="M173.11,29.83c2.47,2.39,4.07,5.84,4.07,9.87c0,3.49-1.25,7.05-4.07,9.79c-2.43,2.35-5.72,3.84-10.11,3.84
			c-4.9,0-8.23-1.96-10.19-3.84c-2.51-2.35-4.07-5.88-4.07-9.72c0-3.76,1.68-7.56,4.03-9.91c1.76-1.76,5.01-3.84,10.22-3.84
			C167.08,26.03,170.49,27.28,173.11,29.83z M157.25,33.83c-1.14,1.1-2.31,3.02-2.31,5.92c0,2.39,0.78,4.31,2.39,5.88
			c1.68,1.61,3.56,2.15,5.6,2.15c2.66,0,4.54-0.98,5.8-2.23c1.02-0.98,2.27-2.82,2.27-5.84c0-2.7-1.1-4.7-2.27-5.88
			c-1.29-1.25-3.37-2.23-5.76-2.23C160.69,31.59,158.66,32.42,157.25,33.83z"/>
		<path class="st0" d="M201.79,42.09c0,2.51-0.31,5.6-2.9,8.27c-2.51,2.59-5.41,2.98-8.15,2.98c-2.74,0-5.64-0.39-8.15-2.98
			c-2.59-2.66-2.9-5.76-2.9-8.27V26.62h6.03v15.32c0,1.14,0.08,3.06,1.37,4.39c1.06,1.14,2.51,1.37,3.64,1.37s2.59-0.24,3.64-1.37
			c1.29-1.33,1.37-3.25,1.37-4.39V26.62h6.03V42.09z"/>
		<path class="st0" d="M213.78,26.62c3.45,0,7.09,0.51,10.3,3.6c2.31,2.23,3.76,5.29,3.76,9.36c0,4.11-1.41,7.09-3.57,9.25
			c-3.6,3.64-8.11,3.92-10.3,3.92h-8.46V26.62H213.78z M211.54,47.65h1.61c1.25,0,4-0.12,5.95-1.76c1.41-1.18,2.55-3.41,2.55-6.31
			c0-2.82-1.14-4.62-2.15-5.64c-1.96-1.96-4.51-2.23-6.35-2.23h-1.61V47.65z"/>
	</g>
	<g>
		<path class="st0" d="M173.67,58.56c-0.07-0.28-0.24-0.54-0.45-0.7c-0.28-0.21-0.69-0.28-0.99-0.28c-0.58,0-0.94,0.21-1.13,0.39
			c-0.24,0.21-0.42,0.54-0.42,0.9c0,0.34,0.15,0.57,0.36,0.76c0.31,0.28,0.6,0.36,0.97,0.52l0.81,0.36
			c0.64,0.28,1.03,0.63,1.25,0.91c0.4,0.49,0.52,1.02,0.52,1.63c0,1.15-0.4,1.93-0.91,2.46c-0.81,0.84-1.82,1-2.6,1
			c-0.78,0-1.45-0.16-2-0.7c-0.49-0.48-0.9-1.28-0.93-2.24l1.54-0.33c-0.01,0.39,0.07,0.99,0.34,1.34c0.24,0.31,0.63,0.52,1.27,0.52
			c0.54,0,0.91-0.18,1.18-0.42c0.39-0.34,0.57-0.96,0.57-1.46c0-0.4-0.15-0.69-0.39-0.94c-0.28-0.3-0.69-0.48-1.02-0.63l-0.76-0.34
			c-0.36-0.16-0.84-0.42-1.18-0.79c-0.31-0.36-0.55-0.87-0.55-1.46c0-0.13,0-1.09,0.79-1.93c0.54-0.57,1.31-0.96,2.37-0.96
			c0.49,0,1.13,0.07,1.72,0.46c0.54,0.36,0.81,0.82,0.94,1.21L173.67,58.56z"/>
		<path class="st0" d="M182.59,60.69c0.4,0.42,0.85,1.13,0.85,2.18c0,0.72-0.16,1.76-1.09,2.66c-0.76,0.73-1.57,0.97-2.58,0.97
			c-0.81,0-1.55-0.15-2.24-0.85c-0.46-0.48-0.87-1.18-0.87-2.19c0-1.09,0.43-2,1.09-2.63c0.69-0.66,1.52-0.97,2.6-0.97
			C181.01,59.86,181.87,59.98,182.59,60.69z M181.35,64.59c0.36-0.39,0.6-0.96,0.6-1.63c0-0.34-0.07-0.88-0.49-1.31
			c-0.31-0.33-0.72-0.48-1.19-0.48c-0.67,0-1.13,0.25-1.42,0.52c-0.43,0.4-0.69,1-0.69,1.64c0,0.48,0.16,0.96,0.46,1.3
			c0.15,0.16,0.57,0.55,1.34,0.55C180.47,65.19,180.95,65.02,181.35,64.59z"/>
		<path class="st0" d="M188.13,55.42l-1.34,10.88h-1.46l1.34-10.88H188.13z"/>
		<path class="st0" d="M191.64,60.02l-0.4,3.27c-0.04,0.33-0.07,0.54-0.07,0.73c0,0.45,0.15,0.72,0.3,0.87
			c0.19,0.19,0.52,0.3,0.82,0.3c0.33,0,0.7-0.13,0.91-0.33c0.33-0.31,0.39-0.81,0.45-1.24l0.45-3.6h1.46l-0.45,3.64
			c-0.07,0.64-0.19,1.54-0.85,2.16c-0.34,0.33-0.97,0.67-1.99,0.67c-0.94,0-1.61-0.28-2-0.69c-0.37-0.39-0.58-0.94-0.58-1.52
			c0-0.21,0.03-0.46,0.07-0.85l0.42-3.42H191.64z"/>
		<path class="st0" d="M199.49,61.37l-0.61,4.94h-1.46l0.61-4.94h-0.61l0.16-1.34h0.61l0.28-2.3h1.46l-0.28,2.3h1.12l-0.16,1.34
			H199.49z"/>
		<path class="st0" d="M203.97,60.02l-0.78,6.28h-1.46l0.78-6.28H203.97z M202.91,56.8c0.18-0.18,0.45-0.31,0.76-0.31
			c0.25,0,0.46,0.09,0.6,0.22c0.13,0.13,0.24,0.33,0.24,0.57c0,0.24-0.1,0.55-0.3,0.76c-0.18,0.19-0.48,0.33-0.79,0.33
			c-0.28,0-0.46-0.1-0.58-0.22c-0.13-0.12-0.24-0.33-0.24-0.57C202.59,57.29,202.7,57.01,202.91,56.8z"/>
		<path class="st0" d="M211.79,60.69c0.4,0.42,0.85,1.13,0.85,2.18c0,0.72-0.16,1.76-1.09,2.66c-0.76,0.73-1.57,0.97-2.58,0.97
			c-0.81,0-1.55-0.15-2.24-0.85c-0.46-0.48-0.87-1.18-0.87-2.19c0-1.09,0.43-2,1.09-2.63c0.69-0.66,1.52-0.97,2.6-0.97
			C210.21,59.86,211.07,59.98,211.79,60.69z M210.55,64.59c0.36-0.39,0.6-0.96,0.6-1.63c0-0.34-0.07-0.88-0.49-1.31
			c-0.31-0.33-0.72-0.48-1.19-0.48c-0.67,0-1.13,0.25-1.42,0.52c-0.43,0.4-0.69,1-0.69,1.64c0,0.48,0.16,0.96,0.46,1.3
			c0.15,0.16,0.57,0.55,1.34,0.55C209.67,65.19,210.15,65.02,210.55,64.59z"/>
		<path class="st0" d="M215.28,60.02h1.46l-0.07,0.57c0.19-0.24,0.39-0.37,0.63-0.49c0.37-0.18,0.7-0.24,1.08-0.24
			c0.76,0,1.22,0.27,1.49,0.54c0.33,0.33,0.57,0.84,0.57,1.49c0,0.24-0.03,0.51-0.13,1.33l-0.39,3.09h-1.46l0.4-3.24
			c0.07-0.55,0.07-0.78,0.07-0.84c0-0.25-0.04-0.58-0.28-0.81c-0.19-0.18-0.48-0.25-0.75-0.25c-0.52,0-0.82,0.22-0.94,0.34
			c-0.39,0.37-0.52,1.02-0.61,1.76l-0.37,3.03h-1.46L215.28,60.02z"/>
		<path class="st0" d="M225.73,61.68c-0.07-0.18-0.18-0.3-0.3-0.39c-0.15-0.12-0.28-0.15-0.45-0.15c-0.15,0-0.36,0.03-0.51,0.18
			c-0.06,0.06-0.13,0.18-0.13,0.33c0,0.15,0.06,0.27,0.18,0.36c0.1,0.09,0.22,0.13,0.61,0.33l0.42,0.21
			c0.51,0.25,0.73,0.48,0.79,0.54c0.19,0.21,0.48,0.61,0.48,1.3c0,0.75-0.31,1.22-0.63,1.52c-0.4,0.37-0.97,0.6-1.76,0.6
			c-0.37,0-0.94-0.06-1.4-0.4c-0.06-0.04-0.55-0.42-0.78-1.15l1.27-0.57c0.06,0.24,0.19,0.48,0.34,0.61
			c0.15,0.13,0.36,0.22,0.61,0.22s0.45-0.07,0.58-0.19c0.16-0.13,0.24-0.31,0.24-0.55c0-0.19-0.06-0.37-0.21-0.52
			c-0.16-0.16-0.39-0.25-0.6-0.36l-0.4-0.21c-0.19-0.1-0.52-0.28-0.72-0.48c-0.27-0.25-0.43-0.61-0.43-1.09
			c0-0.58,0.24-1.06,0.57-1.39c0.46-0.46,1.03-0.57,1.55-0.57c0.4,0,0.75,0.07,1.09,0.3c0.3,0.19,0.55,0.51,0.72,0.81L225.73,61.68z
			"/>
	</g>
	<path class="st0" d="M27.34,43.55c-1.46,0.42-2.99,0.42-4.45-0.02l-0.87-0.35l11.99-5.65c1.85-0.9,3.05-2.82,3.05-4.88l0.01-7.73
		l0-6.95l5.19-2.25c0.88-0.38,1.4-1.23,1.34-2.19c-0.06-0.89-0.61-1.63-1.42-1.94L27.08,3.5L13.31,23.57
		c-0.6,0.81-0.59,1.88,0.03,2.68c0.63,0.81,1.69,1.09,2.63,0.69l4.73-1.99l0,1.79L2.16,34.73l0.01,0.53l3.26,1.3l18.25-7.85l0-8.24
		l-6.51,2.74L28.03,7.39l11.61,6.23l-5.54,2.41l0,8.9l-0.01,7.73c0,0.93-0.54,1.79-1.38,2.2L18.5,41.78L5.43,36.56l-0.29,0.13v2.96
		l9.74,3.89l-0.04,0.02l3.49,1.37l0.01,0l3.57,1.42l0.06,0.02c2.08,0.63,4.28,0.63,6.35,0l0.11-0.03l16.04-7.84v13.57
		c0,1.51-0.88,2.92-2.24,3.59l-14.89,7.28c-1.44,0.42-2.96,0.42-4.41,0l-14.86-7c-1.78-0.84-2.93-2.65-2.93-4.62l0-0.15l-2.69,1.27
		L2.17,35.26l-0.01,0V51.3c0,3.12,1.82,5.99,4.64,7.32l15.06,7.1l0.1,0.03c1.04,0.32,2.11,0.48,3.18,0.48
		c1.07,0,2.14-0.16,3.18-0.48l0.11-0.03l15.1-7.38c1.17-0.57,2.16-1.46,2.85-2.57c0.69-1.11,1.06-2.39,1.06-3.69V33.72L27.34,43.55z
		"/>
	<polygon class="st0" points="5.14,51.14 5.13,50.25 5.13,43.45 5.14,43.45 5.14,39.65 5.14,36.69 5.43,36.56 2.17,35.26 
		2.45,52.41 	"/>
	<polygon class="st0" points="5.14,51.14 5.14,51.3 5.14,51.14 	"/>
	<polygon class="st0" points="5.14,48.28 5.14,43.45 5.13,43.45 5.13,50.25 5.14,51.14 5.14,51.14 	"/>
</g>
</svg>
