<?xml version="1.0" encoding="utf-8"?>
<!-- Generator: Adobe Illustrator 19.2.0, SVG Export Plug-In . SVG Version: 6.00 Build 0)  -->
<svg version="1.1" id="Layer_1" xmlns="http://www.w3.org/2000/svg" xmlns:xlink="http://www.w3.org/1999/xlink" x="0px" y="0px"
	 viewBox="0 0 285 12.6" style="enable-background:new 0 0 285 12.6;" xml:space="preserve">
<style type="text/css">
	.st0{fill:#FFFFFF;}
</style>
<g>
	<g>
		<g>
			<path class="st0" d="M6.5,12.4l-2-4H3.2v4H0v-12h5.3c0.7,0,1.3,0.1,1.9,0.2S8.3,1,8.7,1.3C9.1,1.6,9.4,2,9.6,2.5
				C9.9,3,10,3.6,10,4.3c0,0.9-0.2,1.6-0.6,2.2C9,7.1,8.5,7.5,7.8,7.8l2.4,4.6C10.2,12.4,6.5,12.4,6.5,12.4z M6.4,3.5
				C6.1,3.2,5.8,3.1,5.2,3.1h-2v2.6h2c0.5,0,0.9-0.1,1.2-0.3c0.2-0.2,0.3-0.6,0.3-1C6.7,4,6.6,3.7,6.4,3.5z"/>
		</g>
		<g>
			<path class="st0" d="M12.2,12.4v-12h9.1v2.8h-5.9v1.6H19v2.7h-3.5v2h6v2.8h-9.3V12.4z"/>
		</g>
		<g>
			<path class="st0" d="M33.5,9.2c-0.3,0.8-0.7,1.4-1.2,1.9s-1.2,0.8-2,1s-1.7,0.3-2.8,0.3h-3.9v-12h4.2c0.9,0,1.8,0.1,2.5,0.3
				c0.8,0.2,1.4,0.5,1.9,1c0.5,0.5,0.9,1.1,1.2,1.8s0.4,1.7,0.4,2.8C33.9,7.4,33.8,8.4,33.5,9.2z M30.4,5c-0.1-0.4-0.3-0.7-0.5-1
				c-0.2-0.2-0.5-0.4-0.9-0.6c-0.4-0.1-0.8-0.2-1.3-0.2h-0.8v6.3h0.7c0.5,0,1-0.1,1.3-0.2c0.4-0.1,0.7-0.3,0.9-0.5
				c0.2-0.2,0.4-0.6,0.5-1c0.1-0.4,0.2-0.9,0.2-1.5C30.5,5.8,30.5,5.4,30.4,5z"/>
		</g>
		<g>
			<path class="st0" d="M48,12.4V7.7h-3.7v4.7h-3.4v-12h3.4v4.4H48V0.4h3.4v11.9H48V12.4z"/>
		</g>
		<g>
			<path class="st0" d="M61.5,12.4l-0.6-2.1h-3.6l-0.6,2.1h-3.5l4.3-11.9h3.3l4.3,11.9C65.1,12.5,61.5,12.5,61.5,12.4z M59.8,6.8
				c-0.1-0.4-0.2-0.7-0.3-1S59.3,5.3,59.3,5c-0.1-0.2-0.1-0.4-0.2-0.6C59.1,4.2,59,4,59,3.8c0,0.3,0,0.5-0.1,0.7
				c0,0.2-0.1,0.4-0.2,0.6c-0.1,0.2-0.1,0.5-0.2,0.8c-0.1,0.3-0.2,0.6-0.3,1L58,7.8h2L59.8,6.8z"/>
		</g>
		<g>
			<path class="st0" d="M71.3,3.3v9.1H68V3.3h-3.3V0.4h10v2.9H71.3z"/>
		</g>
	</g>
	<g>
		<path class="st0" d="M78.6,2.1c-0.1,0.1-0.1,0.3-0.3,0.4c-0.1,0.1-0.2,0.2-0.4,0.3c-0.1,0.1-0.3,0.1-0.5,0.1s-0.3,0-0.5-0.1
			c-0.1-0.1-0.3-0.1-0.4-0.3c-0.1-0.1-0.2-0.2-0.3-0.4c-0.1-0.1-0.1-0.3-0.1-0.5s0-0.3,0.1-0.5c0.1-0.1,0.1-0.3,0.3-0.4
			c0.1-0.1,0.2-0.2,0.4-0.3c0.1-0.1,0.3-0.1,0.5-0.1s0.3,0,0.5,0.1c0.1,0.1,0.3,0.1,0.4,0.3c0.1,0.1,0.2,0.2,0.3,0.4
			c0.1,0.1,0.1,0.3,0.1,0.5S78.6,1.9,78.6,2.1z M78.4,1.2c-0.1-0.1-0.1-0.2-0.2-0.3S78,0.7,77.9,0.7c-0.1-0.1-0.3-0.1-0.4-0.1
			s-0.3,0-0.4,0.1s-0.2,0.1-0.3,0.2c-0.1,0.1-0.2,0.2-0.2,0.3c-0.1,0.1-0.1,0.3-0.1,0.4c0,0.1,0,0.3,0.1,0.4
			c0.1,0.1,0.1,0.2,0.2,0.3c0.1,0.1,0.2,0.2,0.3,0.2c0.1,0,0.3,0.1,0.4,0.1s0.3,0,0.4-0.1s0.2-0.1,0.3-0.2c0.1-0.1,0.2-0.2,0.2-0.3
			c0.1-0.1,0.1-0.3,0.1-0.4C78.5,1.5,78.4,1.3,78.4,1.2z M77.9,1.6c-0.1,0.1-0.1,0.1-0.2,0.1L78,2.2h-0.3l-0.3-0.5h-0.3v0.5H77V0.9
			h0.6c0.1,0,0.1,0,0.2,0s0.1,0,0.1,0.1c0,0.1,0,0.1,0.1,0.1c0,0,0,0.1,0,0.2C78,1.4,78,1.5,77.9,1.6z M77.7,1.2L77.7,1.2h-0.4v0.4
			h0.3c0.1,0,0.1,0,0.1,0l0.1-0.1C77.8,1.3,77.8,1.2,77.7,1.2z"/>
	</g>
	<g>
		<path class="st0" d="M92.4,8.9c-0.3,0.8-0.6,1.4-1.1,2c-0.5,0.5-1,0.9-1.7,1.2s-1.4,0.4-2.2,0.4c-0.8,0-1.5-0.1-2.2-0.4
			c-0.7-0.3-1.2-0.7-1.7-1.2s-0.8-1.2-1.1-2C82.1,8.1,82,7.3,82,6.3s0.1-1.9,0.4-2.6c0.3-0.8,0.6-1.4,1.1-2c0.5-0.5,1-0.9,1.7-1.2
			c0.7-0.3,1.5-0.4,2.3-0.4s1.5,0.1,2.1,0.4s1.2,0.7,1.7,1.2s0.8,1.2,1.1,2s0.4,1.6,0.4,2.6S92.6,8.2,92.4,8.9z M89.5,3.5
			c-0.5-0.7-1.2-1-2.1-1s-1.5,0.3-2,1c-0.5,0.6-0.8,1.6-0.8,2.8s0.3,2.2,0.8,2.8c0.5,0.7,1.2,1,2.1,1s1.5-0.3,2-1s0.8-1.6,0.8-2.8
			S90,4.2,89.5,3.5z"/>
		<path class="st0" d="M104.3,5.9c-0.2,0.5-0.5,0.9-0.9,1.2s-0.9,0.6-1.4,0.7s-1.1,0.3-1.7,0.3h-2.7v4.3h-2.4V0.3h5.3
			c0.6,0,1.1,0.1,1.6,0.2c0.5,0.2,0.9,0.4,1.3,0.7s0.7,0.7,0.9,1.2c0.2,0.5,0.3,1,0.3,1.7C104.6,4.8,104.5,5.4,104.3,5.9z M101.7,3
			c-0.3-0.2-0.7-0.4-1.3-0.4h-2.8v3.1h2.8c1.2,0,1.7-0.5,1.7-1.6C102.1,3.6,102,3.3,101.7,3z"/>
		<path class="st0" d="M106.9,12.4V0.3h8.4v2.4h-6v2.1h3.5v2.3h-3.5V10h6.2v2.4C115.5,12.4,106.9,12.4,106.9,12.4z"/>
		<path class="st0" d="M125.8,12.4l-4.4-6.6c-0.1-0.2-0.3-0.5-0.5-0.7c-0.2-0.3-0.3-0.5-0.4-0.6c0,0.1,0,0.3,0,0.5s0,0.5,0,0.7
			c0,0.3,0,0.5,0,0.8s0,0.5,0,0.6v5.3h-2.4V0.3h2.3l4.3,6.4c0.1,0.2,0.3,0.5,0.5,0.7c0.2,0.3,0.3,0.5,0.4,0.6c0-0.1,0-0.3,0-0.5
			s0-0.5,0-0.7c0-0.3,0-0.5,0-0.8s0-0.5,0-0.6V0.3h2.4v12.1H125.8z"/>
		<path class="st0" d="M139.6,10.3c-0.2,0.5-0.5,0.9-0.9,1.2s-0.9,0.6-1.5,0.8s-1.3,0.3-2.1,0.3c-1,0-1.9-0.2-2.8-0.6
			c-0.8-0.4-1.5-0.9-1.9-1.6l1.7-1.6c0.4,0.5,0.9,0.8,1.4,1.1s1.1,0.3,1.7,0.3c0.7,0,1.3-0.1,1.6-0.3s0.5-0.5,0.5-1
			c0-0.2,0-0.4-0.1-0.5S137,8.1,136.8,8c-0.2-0.1-0.5-0.2-0.8-0.4c-0.4-0.1-0.8-0.2-1.4-0.4c-0.6-0.1-1.1-0.3-1.5-0.4
			c-0.5-0.2-0.9-0.4-1.2-0.7c-0.3-0.3-0.6-0.6-0.8-1s-0.3-0.9-0.3-1.5s0.1-1,0.3-1.5c0.2-0.4,0.5-0.8,0.9-1.1s0.8-0.5,1.4-0.7
			c0.5-0.2,1.1-0.2,1.7-0.2c0.9,0,1.8,0.2,2.5,0.5s1.3,0.8,1.9,1.4l-1.7,1.7c-0.4-0.4-0.8-0.7-1.3-0.9c-0.5-0.2-0.9-0.3-1.5-0.3
			c-0.3,0-0.6,0-0.8,0.1s-0.4,0.1-0.5,0.2c-0.1,0.1-0.2,0.2-0.3,0.3s-0.1,0.3-0.1,0.4c0,0.2,0,0.4,0.1,0.5s0.2,0.2,0.4,0.4
			c0.2,0.1,0.4,0.2,0.7,0.3c0.3,0.1,0.7,0.2,1.2,0.3c0.5,0.1,1,0.2,1.4,0.4c0.5,0.2,0.9,0.4,1.3,0.6c0.4,0.3,0.7,0.6,0.9,1.1
			c0.2,0.4,0.4,1,0.4,1.6C139.9,9.3,139.8,9.8,139.6,10.3z"/>
		<path class="st0" d="M147.1,2.7v9.7h-2.4V2.7h-3.5V0.3h9.3v2.4C150.5,2.8,147.1,2.8,147.1,2.7z"/>
		<path class="st0" d="M159.3,12.4l-0.9-2.7H154l-0.9,2.7h-2.6L155,0.3h2.3l4.6,12.1H159.3z M156.8,5.2c-0.1-0.4-0.2-0.7-0.4-1
			c-0.1-0.3-0.2-0.6-0.2-0.8c-0.1,0.2-0.1,0.5-0.3,0.8c-0.1,0.3-0.2,0.7-0.4,1l-0.8,2.2h2.8L156.8,5.2z"/>
		<path class="st0" d="M170.7,3.8c-0.2-0.4-0.5-0.7-0.9-1c-0.4-0.3-0.8-0.3-1.4-0.3c-0.4,0-0.9,0.1-1.2,0.3
			c-0.4,0.2-0.7,0.5-0.9,0.8c-0.2,0.3-0.4,0.7-0.6,1.2c-0.1,0.5-0.2,1-0.2,1.5s0.1,1,0.2,1.5c0.1,0.5,0.3,0.9,0.6,1.2
			s0.5,0.6,0.9,0.8s0.8,0.3,1.2,0.3c0.6,0,1-0.1,1.4-0.4c0.4-0.2,0.7-0.6,1-1.2l2,1.2c-0.4,0.9-1,1.5-1.7,2s-1.6,0.7-2.8,0.7
			c-0.8,0-1.5-0.1-2.2-0.4c-0.6-0.3-1.2-0.7-1.7-1.3c-0.5-0.5-0.8-1.2-1.1-2s-0.4-1.6-0.4-2.6c0-0.9,0.1-1.8,0.4-2.5
			c0.3-0.8,0.6-1.4,1.1-2s1-1,1.7-1.3s1.4-0.5,2.2-0.5c0.6,0,1.1,0.1,1.5,0.2c0.5,0.1,0.9,0.3,1.2,0.6c0.4,0.2,0.7,0.5,0.9,0.8
			c0.3,0.3,0.5,0.7,0.7,1.1L170.7,3.8z"/>
		<path class="st0" d="M182.9,12.4l-3.3-5.8l-1.9,2.3v3.6h-2.4V0.3h2.4v3.4c0,0.1,0,0.3,0,0.4c0,0.2,0,0.4,0,0.5s0,0.4,0,0.5
			c0,0.2,0,0.3,0,0.4c0.1-0.1,0.2-0.3,0.4-0.6c0.2-0.2,0.4-0.5,0.5-0.7l3.4-4.1h2.9l-3.5,4.2l4.4,7.9h-2.9V12.4z"/>
		<path class="st0" d="M201.9,5.9c-0.2,0.5-0.5,0.9-0.9,1.2s-0.9,0.6-1.4,0.7s-1.1,0.3-1.8,0.3h-2.7v4.3h-2.4V0.3h5.3
			c0.6,0,1.1,0.1,1.6,0.2c0.5,0.2,0.9,0.4,1.3,0.7c0.4,0.3,0.7,0.7,0.9,1.2s0.3,1,0.3,1.7C202.2,4.8,202.1,5.4,201.9,5.9z M199.2,3
			c-0.3-0.2-0.7-0.4-1.3-0.4h-2.8v3.1h2.8c1.2,0,1.7-0.5,1.7-1.6C199.7,3.6,199.6,3.3,199.2,3z"/>
		<path class="st0" d="M204.5,12.4V0.3h2.4V10h6.1v2.4C213,12.4,204.5,12.4,204.5,12.4z"/>
		<path class="st0" d="M223.2,12.4l-0.9-2.7h-4.4l-0.9,2.7h-2.6L219,0.3h2.3l4.6,12.1H223.2z M220.7,5.2c-0.1-0.4-0.2-0.7-0.4-1
			c-0.1-0.3-0.2-0.6-0.2-0.8c-0.1,0.2-0.1,0.5-0.3,0.8c-0.1,0.3-0.2,0.7-0.4,1l-0.8,2.2h2.8L220.7,5.2z"/>
		<path class="st0" d="M231.6,2.7v9.7h-2.4V2.7h-3.5V0.3h9.3v2.4C235,2.8,231.6,2.8,231.6,2.7z"/>
		<path class="st0" d="M239.8,2.7V5h3.6v2.4h-3.6v5.1h-2.4V0.3h8.6v2.4C246,2.8,239.8,2.8,239.8,2.7z"/>
		<path class="st0" d="M257.2,8.9c-0.3,0.8-0.6,1.4-1.1,2c-0.5,0.5-1,0.9-1.7,1.2s-1.4,0.4-2.2,0.4s-1.5-0.1-2.2-0.4
			c-0.7-0.3-1.2-0.7-1.7-1.2s-0.8-1.2-1.1-2s-0.4-1.6-0.4-2.6s0.1-1.9,0.4-2.6c0.3-0.8,0.6-1.4,1.1-2c0.5-0.5,1-0.9,1.7-1.2
			s1.4-0.4,2.2-0.4s1.5,0.1,2.1,0.4s1.2,0.7,1.7,1.2c0.5,0.5,0.8,1.2,1.1,2s0.4,1.6,0.4,2.6S257.5,8.2,257.2,8.9z M254.3,3.5
			c-0.5-0.7-1.2-1-2.1-1s-1.5,0.3-2,1s-0.8,1.6-0.8,2.8s0.3,2.2,0.8,2.8c0.5,0.7,1.2,1,2.1,1s1.5-0.3,2-1s0.8-1.6,0.8-2.8
			S254.8,4.2,254.3,3.5z"/>
		<path class="st0" d="M267,12.4l-2.2-4.3h-2.4v4.3H260V0.3h5.6c0.6,0,1.1,0.1,1.6,0.2c0.5,0.2,0.9,0.4,1.3,0.7s0.7,0.7,0.9,1.2
			s0.3,1,0.3,1.7c0,0.9-0.2,1.7-0.6,2.2c-0.4,0.6-1,1-1.7,1.3l2.3,4.7H267V12.4z M266.9,3c-0.3-0.2-0.7-0.4-1.3-0.4h-3.2v3.1h3.2
			c1.2,0,1.7-0.5,1.7-1.6C267.3,3.6,267.2,3.2,266.9,3z"/>
		<path class="st0" d="M281.2,12.4V7.9c0-0.2,0-0.4,0-0.6c0-0.3,0-0.5,0-0.8s0-0.5,0-0.7s0-0.4,0-0.5c-0.1,0.2-0.2,0.5-0.4,0.9
			c-0.2,0.4-0.3,0.7-0.5,1.1l-2.5,5.4l-2.4-5.4c-0.2-0.3-0.3-0.7-0.5-1.1s-0.3-0.7-0.4-0.9c0,0.1,0,0.3,0,0.5s0,0.5,0,0.7
			c0,0.3,0,0.5,0,0.8s0,0.5,0,0.6v4.4h-2.4v-12h2.3l2.5,5.5c0.1,0.2,0.2,0.4,0.2,0.5c0.1,0.2,0.2,0.4,0.2,0.6
			c0.1,0.2,0.1,0.4,0.2,0.5c0.1,0.2,0.1,0.3,0.1,0.4c0.1-0.2,0.2-0.5,0.3-0.9c0.2-0.4,0.3-0.8,0.5-1.1l2.4-5.5h2.4v12.1H281.2z"/>
	</g>
</g>
</svg>
